<?xml version="1.0" encoding="UTF-8" standalone="no"?>
<!-- Created with Inkscape (http://www.inkscape.org/) -->

<svg
   xmlns:dc="http://purl.org/dc/elements/1.1/"
   xmlns:cc="http://creativecommons.org/ns#"
   xmlns:rdf="http://www.w3.org/1999/02/22-rdf-syntax-ns#"
   xmlns:svg="http://www.w3.org/2000/svg"
   xmlns="http://www.w3.org/2000/svg"
   xmlns:sodipodi="http://sodipodi.sourceforge.net/DTD/sodipodi-0.dtd"
   xmlns:inkscape="http://www.inkscape.org/namespaces/inkscape"
   width="256"
   height="256"
   viewBox="0 0 256 256"
   id="svg4206"
   version="1.1"
   inkscape:version="0.91 r13725"
   sodipodi:docname="webmin-logo.svg">
  <defs
     id="defs4208" />
  <sodipodi:namedview
     id="base"
     pagecolor="#ffffff"
     bordercolor="#666666"
     borderopacity="1.0"
     inkscape:pageopacity="0.0"
     inkscape:pageshadow="2"
     inkscape:zoom="1.979899"
     inkscape:cx="123.53029"
     inkscape:cy="89.337464"
     inkscape:document-units="px"
     inkscape:current-layer="layer1"
     showgrid="false"
     units="px"
     inkscape:window-width="1212"
     inkscape:window-height="1013"
     inkscape:window-x="0"
     inkscape:window-y="27"
     inkscape:window-maximized="0" />
  <metadata
     id="metadata4211">
    <rdf:RDF>
      <cc:Work
         rdf:about="">
        <dc:format>image/svg+xml</dc:format>
        <dc:type
           rdf:resource="http://purl.org/dc/dcmitype/StillImage" />
        <dc:title />
      </cc:Work>
    </rdf:RDF>
  </metadata>
  <g
     inkscape:label="Layer 1"
     inkscape:groupmode="layer"
     id="layer1"
     transform="translate(0,-796.36216)">
    <path
       style="fill:#97beef;fill-opacity:0.94117647"
       inkscape:connector-curvature="0"
       id="path12"
       d="m 223.93169,909.07411 c -8.0897,-6.69341 -14.51506,-12.15857 -23.03684,-19.16003 -1.97241,-11.13834 -3.89682,-22.08067 -5.81322,-32.7829 -3.24468,-18.29586 -19.08002,-37.54793 -35.79954,-42.86503 -7.65761,-2.44453 -14.78711,-1.68434 -21.59654,2.37248 -8.25774,-8.74581 -16.89156,-14.63107 -26.30154,-17.6397 -22.332702,-7.14551 -40.644558,5.78923 -38.592125,29.9343 1.172167,13.44571 2.328131,28.03751 3.288694,39.61634 -12.640184,5.24641 -25.659564,10.76855 -36.359657,15.29923 -13.318804,5.68121 -22.516739,17.07159 -26.061485,30.60245 -3.608759,13.81089 -1.444306,29.80227 7.669613,43.9613 8.101706,12.6827 19.692146,21.28444 34.523268,25.94551 -1.228258,16.71974 1.772375,31.16264 9.26595,43.00104 8.469785,13.4589 20.996421,21.5245 33.779111,23.713 12.566651,2.1566 25.253321,-1.3723 34.951361,-10.5903 10.39819,-10.0341 20.23226,-19.5 29.60623,-28.4779 11.10234,6.6734 21.80859,13.1107 32.22278,19.3842 17.02759,10.1539 34.41524,-0.8884 38.5201,-22.4368 1.71637,-8.98191 0.96022,-19.02007 -2.24047,-30.37035 6.06128,-3.73291 9.82607,-9.56221 11.35839,-17.72375 3.2367,-17.33186 -5.34113,-40.12863 -19.38408,-51.78309 z m 2.83659,38.90809 c -0.92419,4.16909 -3.61675,6.66171 -6.98547,6.26547 -2.76858,-0.332 -5.08506,-1.45627 -9.80605,-4.92924 -7.78564,-5.83307 -15.73931,-11.81035 -23.96904,-17.87163 -0.72815,-0.50809 -1.53632,-1.0722 -2.27648,-1.61233 -6.84144,-5.04504 -12.8187,-4.08087 -15.10318,2.82059 -2.3685,7.06549 0.9602,15.36708 8.00569,20.30836 0.75215,0.51607 1.61633,1.12829 2.35249,1.66844 8.58581,6.01718 17.03559,11.88643 25.25731,17.60774 3.48473,2.4324 6.08127,4.70884 7.79363,6.7693 3.78881,4.33689 5.58919,11.47433 4.28491,17.43189 -1.4083,6.28521 -5.46115,9.56201 -10.38218,8.44161 -2.48853,-0.5282 -4.3609,-1.5404 -8.82986,-4.4331 -8.66582,-5.61713 -17.5757,-11.44221 -26.76963,-17.36345 -0.84418,-0.54015 -1.68836,-1.10018 -2.50853,-1.68831 -2.90061,-1.7684 -5.6932,-2.57271 -8.15771,-2.47656 l -0.0121,0 c -2.75258,-0.18065 -5.63718,0.81615 -8.40177,3.03258 -0.76816,0.63208 -1.54432,1.23627 -2.26047,1.91633 -8.57781,7.05755 -17.47168,14.5872 -26.89766,22.50491 -5.09308,4.2568 -7.38556,5.9172 -10.78628,7.1135 -6.84944,2.6165 -14.41903,-0.3202 -19.156028,-7.8536 -4.46094,-7.33377 -4.268899,-16.85162 0.352075,-22.85295 1.964412,-2.66866 5.285113,-5.72131 9.862073,-8.96585 9.9741,-7.13362 19.42409,-13.85093 28.39798,-20.29225 0.81617,-0.55621 1.60034,-1.10439 2.41651,-1.68068 6.80543,-4.83287 8.10971,-13.37869 3.3087,-21.34436 -4.67699,-7.94566 -12.41062,-10.35817 -19.75216,-5.92524 -0.82817,0.50009 -1.65235,1.00022 -2.47652,1.54832 -9.498,5.82123 -19.460099,11.97051 -29.96231,18.44789 -6.773427,4.08485 -10.350179,5.40503 -15.407243,5.63707 -6.249316,0.32417 -12.790692,-3.52462 -16.599494,-9.5859 -4.312909,-6.75342 -4.456938,-15.14319 -0.316068,-20.34829 2.328488,-3.06062 4.821009,-4.91704 11.974516,-8.5858 11.082334,-5.73722 21.70857,-11.13034 31.790693,-16.1914 0.860181,-0.52412 1.728364,-0.88418 2.620551,-1.32028 0.61613,-0.30408 1.18425,-0.66415 1.684355,-1.02822 4.51295,-1.99241 6.70941,-6.97346 6.00527,-13.7189 -0.12004,-1.13224 -0.20005,-2.22445 -0.38809,-3.3047 -1.22826,-11.97452 -2.44851,-23.709 -3.72478,-35.17941 -0.74016,-7.00945 -0.66814,-9.47399 0.22003,-12.25456 1.4163,-4.41693 6.41736,-6.34135 12.02654,-4.82902 4.94104,1.33226 9.67003,5.20508 12.24657,9.89809 2.10445,3.90483 3.07265,7.1215 3.92483,13.7749 1.39629,10.92229 2.8326,22.00864 4.2809,33.35501 0.14402,1.03623 0.28806,2.05644 0.41609,3.09665 1.22026,9.434 6.82944,16.21942 14.09897,17.17964 7.00547,0.93217 10.72225,-4.55698 9.44599,-13.37483 -0.11604,-0.96821 -0.26406,-1.98842 -0.39609,-2.93661 -1.58433,-10.85429 -3.14866,-21.48854 -4.67698,-31.89872 -0.66814,-4.50097 -0.90019,-7.94969 -0.53611,-10.17415 0.54411,-4.93705 4.47694,-7.50958 9.506,-6.15329 5.07707,1.39228 9.83407,6.07326 12.03053,11.65043 1.12424,2.82063 1.63634,5.00506 2.50453,10.22617 1.66435,9.98611 3.11265,20.00822 4.81701,30.37439 l 0.59613,2.88462 c 0.52811,2.55252 0.74015,3.06063 1.20025,4.44493 -0.048,-0.18407 -0.088,-0.32408 -0.11203,-0.4561 -0.0199,-0.0281 -0.024,-0.048 -0.028,-0.0721 -0.028,-0.0281 -0.028,-0.048 -0.036,-0.0719 0,-0.0229 -0.008,-0.0919 -0.0161,-0.13609 l 0,-0.0205 0.048,-0.0121 c 0.88018,3.92884 3.46873,7.80566 7.46156,10.93831 0.69615,0.55612 1.47232,1.09625 2.17246,1.69636 7.74563,6.08529 15.30322,12.09055 22.72479,17.89578 4.46494,3.50872 6.07328,5.13705 7.83765,7.6096 2.86059,4.02483 4.06083,9.89809 3.06465,14.40297 z"
       sodipodi:nodetypes="ccccccccccccccccccccccccccccccccccccccccccccccccccccccccccccccccccccccccccccccccccccccccc" />
  </g>
</svg>
